<?xml version="1.0" standalone="no"?>
<!DOCTYPE svg PUBLIC "-//W3C//DTD SVG 20010904//EN"
 "http://www.w3.org/TR/2001/REC-SVG-20010904/DTD/svg10.dtd">
<svg version="1.0" xmlns="http://www.w3.org/2000/svg"
 width="2744.000000pt" height="2744.000000pt" viewBox="0 0 2744.000000 2744.000000"
 preserveAspectRatio="xMidYMid meet">
<metadata>
Created by potrace 1.11, written by Peter Selinger 2001-2013
</metadata>
<g transform="translate(0.000000,2744.000000) scale(0.100000,-0.100000)"
fill="#000000" stroke="none">
<path d="M12795 27418 c-4 -12 -22 -83 -31 -118 -6 -26 -54 -203 -69 -252 -8
-27 -12 -48 -9 -48 3 0 0 -8 -5 -18 -6 -11 -12 -30 -15 -43 -3 -13 -12 -48
-20 -76 -8 -29 -12 -53 -10 -53 3 0 -2 -13 -11 -30 -9 -16 -13 -30 -11 -30 3
0 -1 -21 -9 -47 -18 -61 -61 -221 -70 -256 -2 -10 -7 -27 -10 -37 -3 -10 -8
-27 -10 -37 -2 -10 -14 -54 -26 -98 -11 -44 -22 -87 -24 -95 -2 -8 -8 -28 -14
-43 -6 -15 -10 -31 -9 -35 1 -4 -6 -34 -16 -67 -9 -33 -21 -76 -26 -95 -19
-66 -89 -326 -115 -426 -15 -54 -31 -115 -36 -134 -6 -19 -16 -60 -24 -90 -17
-69 -73 -275 -85 -315 -5 -16 -12 -41 -14 -55 -7 -30 -43 -166 -92 -345 -20
-71 -38 -136 -39 -145 -2 -8 -11 -42 -20 -75 -17 -59 -35 -131 -39 -150 -1 -5
-5 -16 -10 -23 -4 -7 -6 -16 -3 -18 3 -3 -1 -21 -9 -40 -8 -19 -14 -36 -14
-39 0 -3 0 -6 -1 -7 0 -2 -2 -10 -4 -18 -2 -8 -16 -58 -30 -110 -14 -52 -28
-106 -31 -120 -3 -14 -10 -43 -16 -65 -6 -22 -13 -44 -14 -50 -2 -5 -10 -35
-19 -65 -9 -30 -18 -66 -21 -80 -3 -14 -14 -56 -25 -94 -12 -38 -22 -78 -24
-90 -1 -11 -5 -28 -8 -36 -4 -8 -16 -51 -27 -95 -12 -44 -33 -123 -47 -175
-14 -52 -27 -102 -28 -110 -2 -8 -4 -17 -6 -20 -1 -3 -3 -9 -4 -15 -1 -5 -5
-22 -9 -36 -4 -14 -9 -32 -10 -40 -2 -8 -6 -21 -9 -29 -6 -14 -54 -194 -64
-235 -8 -38 -11 -50 -13 -50 -1 0 -3 -7 -5 -15 -2 -8 -9 -33 -15 -55 -18 -67
-21 -79 -26 -102 -2 -12 -9 -35 -15 -50 -6 -16 -10 -29 -10 -30 1 -2 1 -4 0
-5 -3 -10 -11 -46 -13 -58 -1 -8 -6 -25 -10 -37 -4 -12 -9 -30 -11 -40 -5 -19
-19 -72 -36 -133 -5 -19 -12 -44 -14 -55 -3 -11 -16 -60 -30 -110 -14 -49 -28
-101 -31 -115 -2 -14 -11 -47 -19 -75 -24 -81 -96 -349 -98 -365 -2 -8 -8 -31
-14 -50 -7 -19 -14 -46 -17 -60 -3 -14 -21 -83 -41 -155 -20 -71 -37 -137 -39
-145 -2 -8 -9 -35 -16 -60 -7 -25 -14 -52 -16 -60 -1 -8 -24 -91 -49 -185 -46
-169 -64 -236 -70 -265 -2 -8 -4 -15 -5 -15 -1 0 -3 -7 -5 -15 -1 -9 -17 -67
-34 -130 -41 -149 -46 -166 -77 -285 -14 -55 -28 -107 -31 -115 -3 -8 -7 -22
-8 -30 -5 -24 -14 -60 -20 -80 -3 -10 -8 -27 -10 -37 -2 -10 -14 -52 -25 -93
-12 -41 -24 -83 -26 -92 -4 -19 -7 -28 -24 -93 -6 -22 -13 -50 -15 -62 -2 -12
-6 -27 -10 -32 -3 -6 -8 -20 -11 -31 -2 -11 -6 -29 -8 -39 -3 -10 -18 -70 -35
-132 -38 -138 -76 -283 -87 -324 -10 -41 -11 -45 -14 -47 -1 -2 -3 -10 -5 -18
-1 -8 -15 -60 -30 -115 -15 -55 -28 -104 -29 -110 -3 -11 -24 -89 -32 -117 -5
-17 34 -18 714 -18 l719 0 -34 -122 c-19 -68 -36 -130 -38 -138 -1 -8 -10 -42
-19 -75 -9 -33 -19 -71 -22 -85 -2 -14 -7 -32 -10 -40 -6 -15 -63 -231 -69
-260 -2 -8 -4 -15 -5 -15 -1 0 -3 -8 -6 -17 -2 -10 -6 -26 -8 -35 -3 -10 -5
-18 -6 -18 -1 0 -3 -7 -5 -15 -1 -9 -13 -51 -25 -95 -12 -44 -23 -87 -25 -96
-7 -36 -67 -256 -75 -279 -5 -14 -12 -36 -14 -50 -3 -14 -19 -77 -36 -140 -17
-63 -36 -133 -41 -155 -5 -22 -12 -47 -16 -55 -3 -8 -7 -22 -8 -30 -2 -8 -6
-24 -9 -35 -20 -75 -71 -265 -91 -340 -13 -49 -38 -142 -55 -205 -17 -63 -33
-126 -36 -139 -3 -14 -7 -28 -10 -33 -3 -4 -7 -17 -9 -28 -4 -23 -17 -71 -75
-285 -23 -82 -43 -161 -46 -175 -2 -14 -9 -36 -14 -50 -5 -14 -12 -36 -14 -50
-5 -23 -22 -88 -77 -290 -12 -41 -23 -86 -25 -99 -3 -13 -9 -32 -15 -43 -5
-10 -8 -18 -5 -18 2 0 -3 -21 -11 -47 -8 -27 -17 -61 -20 -78 -3 -16 -9 -37
-13 -45 -4 -8 -11 -32 -14 -53 -3 -21 -11 -47 -16 -57 -6 -11 -9 -23 -8 -27 1
-4 -3 -24 -10 -43 -6 -19 -14 -46 -16 -60 -3 -14 -5 -25 -6 -25 -1 0 -3 -7 -5
-15 -2 -8 -6 -24 -9 -35 -22 -82 -27 -102 -31 -118 -2 -10 -7 -27 -10 -37 -3
-10 -8 -27 -10 -37 -7 -29 -65 -244 -80 -295 -8 -27 -11 -48 -8 -48 3 0 0 -6
-6 -14 -18 -21 2 -29 63 -26 28 1 62 1 76 0 14 -1 30 -2 35 -2 24 0 570 2 775
2 124 1 232 1 240 1 8 0 65 0 127 0 l112 0 -20 -73 c-11 -40 -26 -94 -34 -120
-8 -27 -11 -48 -8 -48 3 0 1 -6 -4 -12 -6 -7 -11 -20 -11 -28 0 -8 -8 -40 -17
-70 -9 -30 -18 -62 -19 -70 -2 -8 -6 -22 -9 -30 -8 -24 -38 -133 -43 -160 -3
-14 -10 -43 -16 -65 -7 -22 -12 -42 -13 -45 -1 -3 -7 -25 -14 -50 -7 -25 -15
-52 -16 -60 -2 -8 -4 -15 -5 -15 -1 0 -3 -11 -6 -24 -2 -13 -12 -49 -21 -80
-9 -31 -16 -60 -15 -65 2 -4 -3 -14 -9 -22 -6 -8 -9 -14 -6 -14 3 0 1 -15 -4
-32 -6 -18 -19 -64 -29 -103 -10 -38 -26 -97 -35 -130 -9 -33 -19 -70 -21 -82
-2 -12 -9 -34 -14 -48 -5 -14 -7 -25 -4 -25 4 0 1 -6 -5 -14 -6 -8 -11 -18
-10 -22 1 -5 -1 -21 -5 -35 -4 -14 -9 -32 -10 -40 -2 -8 -6 -21 -9 -29 -5 -12
-33 -116 -41 -155 -2 -5 -8 -30 -15 -55 -7 -25 -14 -52 -16 -60 -2 -8 -8 -27
-14 -42 -6 -16 -8 -28 -6 -28 2 0 0 -12 -6 -27 -10 -26 -13 -37 -23 -81 -10
-45 -28 -109 -36 -132 -5 -14 -12 -36 -14 -50 -3 -14 -7 -34 -10 -45 -13 -49
-26 -95 -45 -165 -12 -41 -24 -84 -26 -95 -3 -11 -7 -29 -9 -40 -3 -11 -14
-50 -25 -87 -11 -38 -18 -68 -16 -68 3 0 0 -12 -6 -27 -6 -16 -22 -68 -35
-118 -26 -97 -27 -99 -42 -160 -11 -42 -26 -99 -92 -341 -23 -82 -43 -156 -45
-164 -1 -8 -13 -51 -24 -95 -12 -44 -23 -87 -25 -96 -2 -8 -11 -39 -20 -68 -8
-29 -15 -56 -14 -59 1 -4 -2 -14 -5 -22 -6 -15 -57 -202 -62 -230 -2 -8 -4
-15 -5 -15 -1 0 -3 -7 -5 -15 -1 -8 -10 -42 -19 -75 -9 -33 -18 -67 -20 -75
-2 -8 -9 -35 -16 -60 -7 -25 -11 -45 -10 -45 1 0 -4 -13 -11 -30 -6 -16 -13
-41 -14 -55 -2 -14 -4 -25 -5 -25 -1 0 -4 -13 -6 -30 l-5 -30 715 3 715 2 -4
-67 c-2 -38 -6 -97 -9 -133 -3 -36 -8 -105 -11 -155 -3 -49 -7 -115 -9 -145
-3 -30 -7 -98 -11 -150 -6 -106 -11 -172 -20 -305 -4 -49 -9 -116 -11 -148 -2
-32 -6 -98 -9 -145 -3 -48 -8 -116 -10 -152 -3 -36 -7 -96 -10 -135 -3 -38 -8
-110 -10 -160 -3 -49 -8 -119 -11 -155 -10 -135 -22 -314 -29 -440 -3 -47 -8
-112 -11 -145 -2 -33 -7 -94 -9 -135 -5 -77 -8 -120 -21 -300 -4 -58 -8 -133
-8 -167 -1 -35 -3 -63 -6 -63 -3 0 -5 -21 -6 -48 -1 -43 -7 -141 -19 -312 -3
-36 -7 -101 -10 -145 -2 -44 -6 -109 -9 -145 -3 -36 -8 -97 -11 -136 -15 -226
-19 -284 -19 -331 -1 -29 -3 -53 -6 -53 -3 0 -6 -24 -6 -53 -1 -28 -4 -92 -8
-142 -8 -118 -14 -211 -21 -310 -3 -44 -7 -111 -10 -150 -8 -112 -15 -214 -21
-300 -2 -44 -7 -111 -10 -150 -2 -38 -6 -99 -9 -135 -7 -116 -15 -223 -20
-295 -3 -38 -8 -106 -10 -150 -3 -44 -8 -114 -11 -155 -3 -41 -7 -102 -9 -135
-2 -33 -7 -105 -11 -160 -4 -55 -8 -122 -10 -150 -1 -27 -3 -50 -3 -50 -1 0
-4 -36 -6 -80 -7 -119 -14 -233 -19 -294 -3 -29 -8 -101 -11 -160 -4 -58 -8
-122 -10 -141 -2 -19 -6 -87 -10 -150 -3 -63 -8 -128 -10 -145 -3 -16 -7 -77
-11 -135 -3 -58 -7 -123 -9 -145 -2 -22 -6 -94 -10 -160 -4 -66 -8 -133 -10
-150 -1 -16 -6 -82 -10 -145 -3 -63 -8 -131 -10 -151 -2 -20 -7 -83 -10 -140
-3 -57 -8 -131 -10 -164 -6 -73 -13 -174 -19 -280 -6 -96 -9 -100 89 145 36
91 70 174 75 185 5 11 19 45 30 75 11 30 24 64 29 75 5 11 17 40 27 65 9 25
25 63 34 85 9 22 23 56 30 75 7 19 25 64 40 100 34 82 43 104 44 110 4 16 51
127 59 138 5 6 6 12 3 12 -4 0 -1 10 6 22 6 13 13 28 14 33 1 6 12 33 24 60
12 27 23 54 25 60 1 5 7 21 13 35 5 14 49 122 96 240 47 118 91 223 96 232 6
10 10 23 10 31 0 7 8 28 19 47 10 19 19 37 19 40 1 10 86 226 111 285 5 11 18
43 30 72 12 28 26 64 33 80 6 15 12 33 14 38 3 11 47 121 69 170 7 17 21 53
31 80 9 28 20 55 24 60 4 6 15 33 25 60 9 28 23 64 31 80 40 95 74 181 74 192
0 7 4 13 10 13 5 0 9 3 8 8 0 4 2 16 6 27 17 46 99 252 112 282 8 17 14 33 14
36 0 2 8 22 17 43 9 22 17 41 18 44 1 3 6 16 12 30 6 14 19 45 28 70 9 25 23
59 30 75 7 17 41 100 75 185 33 85 67 169 74 185 8 17 22 53 32 80 10 28 24
61 31 75 7 14 13 33 13 43 0 9 5 17 12 17 6 0 8 3 5 7 -4 3 -3 11 1 17 5 6 17
34 27 61 9 28 23 64 31 80 29 68 64 159 64 170 0 6 5 16 12 23 6 6 13 17 14
24 2 14 96 251 120 305 8 17 14 33 14 36 0 2 8 22 17 43 9 22 17 41 18 44 4
11 18 48 35 85 9 22 28 69 41 105 12 36 25 67 29 70 3 3 14 30 24 60 11 30 26
66 33 80 7 14 13 33 13 43 0 9 5 17 10 17 6 0 10 6 10 13 0 13 59 168 98 257
18 40 104 254 106 265 2 6 8 21 13 35 6 14 25 61 42 105 18 44 38 94 46 112 8
17 15 34 15 38 0 3 9 25 19 48 11 24 23 55 26 70 4 15 11 27 16 27 5 0 9 7 9
16 0 17 33 102 56 146 8 15 14 29 14 30 -1 3 12 39 32 86 6 15 10 31 9 36 -1
4 4 15 11 23 7 8 13 20 14 27 1 6 8 25 15 41 7 17 13 32 14 35 1 3 6 16 12 30
6 14 25 61 42 105 17 44 36 89 41 100 10 22 33 77 34 85 2 9 108 274 127 317
11 23 19 44 19 46 0 3 8 22 17 43 9 22 18 44 19 49 5 21 116 292 135 328 10
22 19 45 19 53 0 8 5 22 10 32 6 9 53 125 105 257 53 132 100 249 105 260 16
33 51 134 50 141 -1 4 2 10 7 13 4 3 45 101 91 216 46 116 87 219 91 230 5 11
23 56 41 100 18 44 38 94 45 110 23 58 40 100 41 105 0 3 6 19 14 35 31 71 40
93 40 99 0 3 11 30 25 60 14 30 25 60 25 65 0 6 4 19 10 29 5 9 40 91 76 182
37 91 71 176 77 190 5 14 11 30 12 35 2 9 51 128 121 298 13 32 24 65 24 73 0
8 5 14 10 14 6 0 10 11 10 24 0 14 4 27 9 30 5 3 21 41 37 83 15 43 30 83 34
88 3 6 19 44 35 85 16 41 32 79 37 85 4 5 8 15 8 23 0 7 11 38 25 68 14 30 25
57 25 60 0 3 6 20 14 37 8 18 35 86 61 152 26 66 50 125 53 130 4 6 7 13 8 18
1 4 3 9 4 12 1 3 3 8 5 13 1 4 5 16 10 27 4 11 19 47 32 80 13 33 28 69 33 80
24 53 38 95 32 95 -4 0 -2 4 3 8 6 4 24 41 39 82 16 41 37 94 47 117 11 23 19
49 19 57 0 8 7 22 16 30 8 9 13 16 10 16 -3 0 3 20 14 45 11 25 16 45 12 45
-4 0 -2 4 4 8 5 4 18 30 28 57 10 28 29 74 42 103 13 29 24 57 24 62 0 6 5 18
10 28 6 9 38 87 71 172 33 85 69 173 79 195 9 22 26 63 36 90 10 28 24 61 31
75 7 14 13 31 13 38 0 7 4 20 10 30 5 9 26 58 45 107 20 50 40 99 45 110 4 11
22 56 40 100 17 44 36 91 42 105 20 46 27 65 48 118 l20 52 -33 0 c-17 0 -225
0 -462 0 -236 0 -468 0 -515 0 -47 1 -92 1 -100 1 -8 0 -71 0 -140 0 -69 0
-137 0 -152 0 -32 -1 -34 7 -14 73 8 25 14 48 14 49 0 1 5 22 12 47 7 25 14
53 16 62 6 26 11 47 29 108 9 30 18 62 20 71 7 34 246 926 256 959 6 19 12 42
13 50 2 8 6 22 9 30 4 8 11 35 17 60 14 58 15 63 35 140 9 36 18 70 20 75 1 6
5 17 8 25 5 12 44 160 61 230 2 8 9 35 16 60 7 25 14 56 17 69 2 13 8 32 14
43 5 10 8 18 5 18 -2 0 3 21 11 48 8 26 16 58 19 72 3 14 7 32 11 40 7 18 10
28 16 55 5 21 67 253 118 440 16 61 32 119 34 130 3 11 19 70 36 130 16 61 33
124 36 140 3 17 9 38 15 48 5 10 7 21 5 24 -3 2 1 19 8 37 8 18 16 44 19 57 5
23 67 258 87 329 18 64 26 96 34 135 3 11 14 52 25 90 12 39 23 77 25 85 13
54 26 107 49 190 14 52 41 152 60 223 l34 127 -661 1 c-364 0 -688 0 -719 -1
l-56 -1 40 148 c22 81 43 164 48 183 4 19 13 50 18 68 6 18 11 35 11 37 1 8 5
20 19 70 6 22 13 49 15 60 2 11 7 27 10 35 5 13 20 73 32 123 2 10 7 27 10 37
3 10 8 27 10 37 2 10 9 35 15 56 5 20 15 54 20 75 6 20 13 45 15 55 2 10 7 27
10 37 3 10 8 28 10 39 3 12 7 30 9 40 3 11 10 29 16 40 6 12 9 21 6 21 -3 0 4
33 16 73 11 39 21 79 23 87 2 8 17 66 34 128 17 63 33 121 35 130 2 10 6 24 9
32 4 8 11 33 16 55 5 22 19 76 31 120 12 44 23 87 25 95 2 8 11 40 19 70 31
116 68 256 71 270 2 8 15 53 28 100 13 47 24 87 24 90 0 3 5 21 11 40 6 19 13
46 16 60 3 14 16 66 30 115 15 50 28 103 31 119 3 16 8 33 11 38 3 5 7 18 10
31 2 12 17 72 34 132 17 61 33 121 36 135 2 14 7 32 11 40 7 16 8 23 17 60 3
14 13 52 22 85 9 33 17 65 18 70 2 6 8 30 15 55 7 25 15 52 17 60 1 8 42 159
89 335 48 176 89 328 91 338 7 29 12 49 33 122 53 192 84 316 79 321 -4 3 -48
5 -100 4 -51 -1 -104 -1 -118 0 -14 1 -32 2 -40 2 -266 -3 -1094 -1 -1097 2
-3 2 -17 0 -33 -4 -37 -11 -41 1 -23 60 8 25 16 54 18 65 4 17 14 61 21 88 1
4 2 8 4 10 1 1 3 10 6 20 2 9 6 25 8 35 3 9 5 17 6 17 1 0 3 7 5 15 2 8 17 69
35 135 17 66 33 127 35 135 3 8 14 49 25 90 11 41 23 83 25 93 2 10 14 52 25
95 12 42 24 87 26 100 3 13 11 42 18 65 8 23 19 65 26 92 6 28 13 57 16 65 2
8 10 40 19 70 9 30 18 63 20 72 2 10 16 62 31 115 15 54 28 105 29 113 1 8 5
22 8 30 4 8 11 35 17 60 6 25 16 63 21 85 6 22 12 47 14 55 2 8 4 16 5 18 2 1
4 7 5 12 1 6 3 11 5 13 2 3 10 38 15 64 2 12 6 27 10 33 3 5 9 23 11 38 3 15
13 56 23 92 11 36 54 196 96 355 43 160 91 340 107 400 16 61 32 120 34 132 2
12 8 33 13 45 5 13 9 25 9 28 0 3 6 25 13 50 17 61 17 62 23 87 3 13 17 67 31
120 37 134 75 275 79 293 2 8 9 35 16 60 7 25 14 56 17 69 2 13 8 32 14 43 5
10 8 18 5 18 -2 0 3 21 11 48 8 26 16 58 19 72 3 14 7 32 11 40 3 8 7 20 8 25
6 22 65 246 90 335 14 52 28 106 31 120 2 14 7 32 10 40 9 23 34 120 34 130 0
6 -678 10 -1825 10 -1452 0 -1826 -3 -1830 -12z"/>
</g>
</svg>
